HIERARCHY
ROOT Hips
{
	OFFSET	0.00	0.00	0.00
	CHANNELS 6 Xposition Yposition Zposition Zrotation Xrotation Yrotation
	JOINT LeftUpLeg
	{
		OFFSET	 0.126116	-0.014019	-0.065224
		CHANNELS 3 Zrotation Xrotation Yrotation
		JOINT LeftLeg
		{
			OFFSET	 0.000000	 0.000000	 0.569914
			CHANNELS 3 Zrotation Xrotation Yrotation
			JOINT LeftFoot
			{
				OFFSET	 0.000000	 0.000000	 0.544423
				CHANNELS 3 Zrotation Xrotation Yrotation
				JOINT LeftToeBase
				{
					OFFSET	 0.000000	 0.000000	 0.207117
					CHANNELS 3 Zrotation Xrotation Yrotation
					End Site
					{
						OFFSET	 0.000000	 0.000000	 0.207117
					}
				}
			}
		}
	}
	JOINT RightUpLeg
	{
		OFFSET	-0.124023	-0.008373	-0.065224
		CHANNELS 3 Zrotation Xrotation Yrotation
		JOINT RightLeg
		{
			OFFSET	 0.000000	 0.000000	 0.570047
			CHANNELS 3 Zrotation Xrotation Yrotation
			JOINT RightFoot
			{
				OFFSET	 0.000000	 0.000000	 0.544354
				CHANNELS 3 Zrotation Xrotation Yrotation
				JOINT RightToeBase
				{
					OFFSET	 0.000000	 0.000000	 0.207540
					CHANNELS 3 Zrotation Xrotation Yrotation
					End Site
					{
						OFFSET	 0.000000	 0.000000	 0.207540
					}
				}
			}
		}
	}
	JOINT Spine
	{
		OFFSET	 0.000184	-0.007763	 0.117403
		CHANNELS 3 Zrotation Xrotation Yrotation
		JOINT Spine1
		{
			OFFSET	 0.000000	 0.000000	 0.137269
			CHANNELS 3 Zrotation Xrotation Yrotation
			JOINT Spine2
			{
				OFFSET	 0.000000	 0.000000	 0.156879
				CHANNELS 3 Zrotation Xrotation Yrotation
				JOINT LeftShoulder
				{
					OFFSET	 0.080501	-0.002496	 0.160144
					CHANNELS 3 Zrotation Xrotation Yrotation
					JOINT LeftArm
					{
						OFFSET	 0.000000	 0.000000	 0.164363
						CHANNELS 3 Zrotation Xrotation Yrotation
						JOINT LeftForeArm
						{
							OFFSET	 0.000000	 0.000000	 0.364576
							CHANNELS 3 Zrotation Xrotation Yrotation
							JOINT LeftHand
							{
								OFFSET	 0.000000	 0.000000	 0.360812
								CHANNELS 3 Zrotation Xrotation Yrotation
								JOINT LeftHandIndex1
								{
									OFFSET	 0.000000	 0.000000	 0.086006
									CHANNELS 3 Zrotation Xrotation Yrotation
									JOINT LeftHandIndex2
									{
										OFFSET	 0.000000	 0.000000	 0.047236
										CHANNELS 3 Zrotation Xrotation Yrotation
										JOINT LeftHandIndex3
										{
											OFFSET	-0.004284	-0.000551	 0.038166
											CHANNELS 3 Zrotation Xrotation Yrotation
											End Site
											{
												OFFSET	-0.004284	-0.000551	 0.038166
											}
										}
									}
								}
							}
						}
					}
				}
				JOINT Neck
				{
					OFFSET	 0.000000	 0.000000	 0.176489
					CHANNELS 3 Zrotation Xrotation Yrotation
					JOINT Head
					{
						OFFSET	 0.000000	-0.001747	 0.077940
						CHANNELS 3 Zrotation Xrotation Yrotation
						End Site
						{
							OFFSET	 0.000000	-0.001747	 0.077940
						}
					}
				}
				JOINT RightShoulder
				{
					OFFSET	-0.080363	 0.000306	 0.159706
					CHANNELS 3 Zrotation Xrotation Yrotation
					JOINT RightArm
					{
						OFFSET	 0.000000	 0.000000	 0.164196
						CHANNELS 3 Zrotation Xrotation Yrotation
						JOINT RightForeArm
						{
							OFFSET	 0.000000	 0.000000	 0.365611
							CHANNELS 3 Zrotation Xrotation Yrotation
							JOINT RightHand
							{
								OFFSET	 0.000000	 0.000000	 0.360648
								CHANNELS 3 Zrotation Xrotation Yrotation
								JOINT RightHandIndex1
								{
									OFFSET	 0.000000	 0.000000	 0.069977
									CHANNELS 3 Zrotation Xrotation Yrotation
									JOINT RightHandIndex2
									{
										OFFSET	 0.000000	 0.000000	 0.052305
										CHANNELS 3 Zrotation Xrotation Yrotation
										JOINT RightHandIndex3
										{
											OFFSET	 0.009002	-0.000782	 0.042196
											CHANNELS 3 Zrotation Xrotation Yrotation
											End Site
											{
												OFFSET	 0.009002	-0.000782	 0.042196
											}
										}
									}
								}
							}
						}
					}
				}
			}
		}
	}
}
MOTION
Frames:    4
Frame Time: 0.03333334
 7.262822	 5.274976	-0.242767	 160.942800	-0.000008	-0.000005	 4.117190	-1.743456	 179.873500	 3.144682	-11.594540	 1.749894	 4.431011	 71.402240	 1.145402	-2.385833	 28.452760	 0.000004	-4.119452	-2.154259	-179.893100	-3.138409	-11.963990	-1.790670	-4.423576	 71.426400	-1.178366	 2.384659	 28.388700	-0.000001	-0.004747	 2.704451	 0.089747	-0.000861	-1.797851	-0.000070	-0.001033	-2.157420	-0.000088	-91.776180	 78.527400	-180.000000	 12.108080	-5.220968	-1.016091	-4.393896	-0.888979	-0.368784	-18.234440	-1.165655	-4.069371	-3.812334	 37.924440	-2.927599	-2.450526	 36.184240	 0.754587	-1.378229	 35.397820	-2.634230	 0.000023	-3.783169	-0.089619	-0.001384	 1.263206	 0.000017	 89.782120	 78.203870	 180.000000	-12.512960	-5.961348	 1.072667	 4.635286	-0.427208	 0.526668	 18.619710	-2.279128	 8.282845	 6.437017	 35.671460	-0.771858	 2.830251	 35.756010	-7.813440	-2.350882	 35.473990	 5.254307
 7.231182	 5.277915	-0.251482	-107.422700	 4.131117	-1.118860	 9.338050	 18.513470	-176.322500	-5.634790	-11.624710	 1.534563	-8.167937	 88.913030	 11.612920	-2.270775	 42.226200	-0.337011	 4.599321	-45.643180	-179.577900	-0.100950	-42.199460	 3.738180	-176.146700	 84.783390	-178.986200	 2.385694	 28.151290	-0.005130	-2.304008	 1.908229	 2.699856	-2.966212	-5.674412	 0.855768	-3.053442	-9.632671	-1.151263	-91.776180	 78.527400	 180.000000	 42.771670	 62.357280	-58.076670	-6.373727	-4.568455	-26.328210	 5.030861	-3.159737	-5.369021	-3.812334	 37.924440	-2.927599	-2.450526	 36.184240	 0.754587	-1.378229	 35.397820	-2.634230	-0.302008	 5.076178	-2.301919	-0.648490	-23.664790	-2.712771	 89.782100	 78.203850	-180.000000	-30.229080	 73.255320	 33.623850	 3.873546	-6.448075	 19.567930	-14.237010	-4.313109	 9.552167	 6.437017	 35.671460	-0.771858	 2.830251	 35.756010	-7.813440	-2.350882	 35.473990	 5.254307
 7.175798	 5.296487	-0.253485	-106.449500	 4.401542	-1.404375	 8.740123	 20.776740	-176.833600	-4.782036	-11.621380	 1.560006	 2.020107	 87.522040	 1.582257	-2.213956	 46.016640	-0.450557	 5.233646	-44.768680	-178.633500	 0.784018	-42.639880	 4.676175	-175.560700	 86.949890	-178.769500	 2.378562	 29.677580	 0.028127	-2.796596	 1.573579	 2.423915	-3.223843	-5.845364	 0.598925	-3.135547	-9.547382	-1.258897	-91.776180	 78.527380	-180.000000	 44.513950	 63.563620	-59.470750	-6.334260	-4.472346	-23.784310	 5.589745	-3.409931	-5.367853	-3.812334	 37.924440	-2.927599	-2.450526	 36.184240	 0.754587	-1.378229	 35.397820	-2.634230	-0.525940	 5.135024	-2.242952	-0.796671	-23.677850	-2.581375	 89.782090	 78.203830	-180.000000	-28.574040	 73.955510	 31.253810	 4.076728	-6.291370	 18.803050	-14.447640	-4.538454	 9.551467	 6.437017	 35.671460	-0.771858	 2.830251	 35.756010	-7.813440	-2.350882	 35.473990	 5.254307
 7.107000	 5.321178	-0.253471	-105.705500	 4.461567	-1.427795	 8.459618	 23.397760	-178.045400	-3.618111	-11.609930	 1.643803	 4.948503	 83.335140	-0.738851	-2.107256	 51.297420	-0.633845	 4.696394	-43.142800	-178.854000	 4.820179	-45.002610	 7.604504	 6.721473	 88.832990	 1.120669	 2.372492	 30.817400	 0.053448	-3.487076	 1.127404	 1.595092	-3.368933	-6.177417	 0.302792	-3.018987	-9.612397	-1.343725	-91.776180	 78.527400	-180.000000	 45.333050	 65.950210	-58.828980	-7.059711	-4.292345	-21.118430	 6.135080	-3.857986	-5.369308	-3.812334	 37.924440	-2.927599	-2.450526	 36.184240	 0.754587	-1.378229	 35.397820	-2.634230	-0.776832	 4.828948	-2.072720	-0.929200	-23.133240	-2.221419	 89.782120	 78.203870	 180.000000	-26.232730	 74.727450	 28.028850	 4.535232	-6.119647	 18.276110	-14.462260	-4.933578	 9.565058	 6.437017	 35.671460	-0.771858	 2.830251	 35.756010	-7.813440	-2.350882	 35.473990	 5.254307
